<?xml version="1.0" encoding="UTF-8"?>
<svg id="a" data-name="Layer 1" xmlns="http://www.w3.org/2000/svg" viewBox="0 0 211.09 44">
  <defs>
    <style>
      .b {
        fill: #ff9d0b;
      }

      .b, .c, .d, .e, .f, .g, .h {
        stroke-width: 0px;
      }

      .c {
        fill: #fbf6e3;
      }

      .d {
        fill: #ffd21e;
      }

      .e, .f {
        fill: #3a3b45;
      }

      .f {
        fill-rule: evenodd;
      }

      .g {
        fill: #d36902;
      }

      .h {
        fill: #ff323d;
      }
    </style>
  </defs>
  <path class="c" d="M205.12,44H5.97c-3.29,0-5.97-2.7-5.97-6V6C0,2.7,2.69,0,5.97,0h199.14c3.29,0,5.97,2.7,5.97,6v32c0,3.3-2.69,6-5.97,6Z"/>
  <g>
    <path class="d" d="M29.32,31.38c5.55,0,10.05-4.5,10.05-10.05s-4.5-10.05-10.05-10.05-10.05,4.5-10.05,10.05,4.5,10.05,10.05,10.05Z"/>
    <path class="b" d="M39.37,21.33c0-5.55-4.5-10.05-10.05-10.05s-10.05,4.5-10.05,10.05,4.5,10.05,10.05,10.05,10.05-4.5,10.05-10.05ZM18.11,21.33c0-6.19,5.02-11.21,11.21-11.21s11.21,5.02,11.21,11.21-5.02,11.21-11.21,11.21-11.21-5.02-11.21-11.21Z"/>
    <path class="e" d="M32.58,18.59c.37.13.51.88.89.69.71-.37.97-1.25.6-1.96-.37-.71-1.25-.97-1.96-.6-.71.37-.97,1.25-.6,1.96,0,0,0,0,0,0,.18.33.74-.21,1.07-.09h0ZM25.77,18.59c-.37.13-.52.88-.89.69-.71-.37-.97-1.25-.6-1.96.37-.71,1.25-.97,1.96-.6.71.37.97,1.25.6,1.96,0,0,0,0,0,0-.18.33-.74-.21-1.07-.09h0Z"/>
    <path class="h" d="M29.25,25.53c2.84,0,3.76-2.53,3.76-3.83,0-.68-.45-.46-1.18-.1-.67.33-1.58.79-2.57.79-2.08,0-3.76-1.99-3.76-.69s.91,3.83,3.76,3.83h0Z"/>
    <path class="f" d="M27.07,24.87c.31-.63.86-1.1,1.53-1.3.12-.03.23.16.36.37.12.2.24.4.36.4.13,0,.26-.2.38-.39.13-.2.26-.4.38-.36.62.2,1.14.63,1.45,1.21,1.08-.85,1.47-2.24,1.47-3.09,0-.68-.45-.46-1.18-.1l-.04.02c-.67.33-1.56.77-2.54.77s-1.87-.44-2.54-.77c-.75-.37-1.22-.61-1.22.08,0,.88.42,2.33,1.58,3.17Z"/>
    <path class="b" d="M36.12,19.95c.52,0,.94-.42.94-.94s-.42-.94-.94-.94-.94.42-.94.94.42.94.94.94ZM22.67,19.95c.52,0,.94-.42.94-.94s-.42-.94-.94-.94-.94.42-.94.94.42.94.94.94ZM20.73,23.13c-.47,0-.88.19-1.18.54-.25.31-.38.69-.38,1.09-.18-.05-.37-.08-.56-.09-.45,0-.85.17-1.14.48-.53.55-.62,1.37-.23,2.02-.26.21-.44.5-.52.82-.07.26-.14.81.23,1.37-.28.43-.32.98-.11,1.45.29.67,1.03,1.2,2.46,1.76.89.35,1.7.58,1.71.58,1.03.29,2.09.44,3.16.46,1.69,0,2.91-.52,3.6-1.54,1.12-1.65.96-3.15-.49-4.6-.8-.8-1.34-1.99-1.45-2.25-.23-.77-.82-1.63-1.81-1.63-.53,0-1.03.27-1.33.71-.29-.36-.57-.65-.83-.82-.34-.23-.74-.36-1.15-.37ZM20.73,24.29c.15,0,.33.06.53.19.62.39,1.81,2.44,2.24,3.23.14.27.4.38.62.38.45,0,.8-.44.04-1.01-1.13-.85-.74-2.23-.2-2.32.02,0,.05,0,.07,0,.49,0,.71.85.71.85,0,0,.64,1.6,1.73,2.69,1.09,1.09,1.15,1.97.35,3.13-.54.8-1.58,1.04-2.65,1.04s-2.24-.26-2.87-.42c-.03,0-3.89-1.1-3.4-2.02.08-.16.22-.22.39-.22.69,0,1.94,1.02,2.48,1.02.12,0,.2-.05.24-.17.23-.82-3.49-1.17-3.18-2.36.06-.21.21-.29.42-.29.91,0,2.95,1.6,3.38,1.6.03,0,.06,0,.07-.03.21-.35.1-.59-1.42-1.5-1.51-.91-2.57-1.46-1.97-2.12.07-.08.17-.11.29-.11.92,0,3.08,1.97,3.08,1.97,0,0,.58.61.94.61.08,0,.15-.03.2-.11.25-.42-2.33-2.38-2.48-3.18-.1-.55.07-.82.38-.82h0Z"/>
    <path class="d" d="M26.83,31.43c.8-1.17.74-2.04-.35-3.13-1.09-1.09-1.73-2.69-1.73-2.69,0,0-.24-.93-.78-.84s-.94,1.47.2,2.32c1.13.85-.23,1.42-.66.63-.43-.8-1.63-2.84-2.24-3.23-.62-.39-1.05-.17-.91.64.14.81,2.73,2.76,2.48,3.18-.25.43-1.14-.49-1.14-.49,0,0-2.77-2.52-3.37-1.86-.6.66.46,1.21,1.97,2.12,1.51.91,1.63,1.16,1.42,1.5-.22.35-3.55-2.47-3.86-1.27-.31,1.19,3.4,1.53,3.18,2.36-.23.82-2.62-1.56-3.11-.63-.49.93,3.37,2.02,3.4,2.03,1.24.32,4.41,1.01,5.52-.61Z"/>
    <path class="b" d="M38.05,23.13c.47,0,.89.19,1.18.54.25.31.38.69.38,1.09.18-.06.37-.08.56-.09.45,0,.85.17,1.14.48.53.55.62,1.37.23,2.02.25.21.44.5.51.82.07.26.14.81-.23,1.37.28.43.32.98.11,1.45-.29.67-1.03,1.2-2.46,1.76-.89.35-1.71.58-1.71.58-1.03.29-2.09.44-3.16.46-1.69,0-2.91-.52-3.6-1.54-1.12-1.65-.96-3.15.49-4.6.8-.8,1.34-1.99,1.45-2.25.23-.77.82-1.63,1.8-1.63.53,0,1.03.27,1.33.71.29-.36.57-.65.83-.82.34-.23.74-.36,1.15-.37ZM38.05,24.29c-.15,0-.33.06-.53.19-.62.39-1.81,2.44-2.24,3.23-.12.23-.36.38-.62.38-.45,0-.8-.44-.04-1.01,1.13-.85.73-2.23.19-2.32-.02,0-.05,0-.07,0-.49,0-.71.85-.71.85,0,0-.64,1.6-1.73,2.69-1.09,1.09-1.15,1.97-.35,3.13.54.8,1.58,1.04,2.65,1.04s2.24-.26,2.87-.42c.03,0,3.89-1.1,3.4-2.02-.08-.16-.22-.22-.39-.22-.69,0-1.94,1.02-2.48,1.02-.12,0-.21-.05-.24-.17-.23-.82,3.48-1.17,3.17-2.36-.05-.21-.2-.29-.42-.29-.91,0-2.95,1.6-3.38,1.6-.03,0-.05,0-.07-.03-.21-.35-.1-.59,1.41-1.5,1.51-.91,2.57-1.46,1.97-2.12-.07-.08-.16-.11-.28-.11-.92,0-3.09,1.97-3.09,1.97,0,0-.58.61-.94.61-.08,0-.16-.04-.2-.11-.25-.42,2.33-2.38,2.47-3.18.1-.55-.07-.82-.38-.82h0Z"/>
    <path class="d" d="M31.96,31.43c-.8-1.17-.74-2.04.35-3.13,1.09-1.09,1.73-2.69,1.73-2.69,0,0,.24-.93.78-.84.54.09.93,1.47-.2,2.32-1.13.85.23,1.42.66.63.44-.8,1.63-2.84,2.24-3.23.62-.39,1.05-.17.91.64-.14.81-2.72,2.76-2.47,3.18.25.43,1.13-.49,1.13-.49,0,0,2.77-2.52,3.37-1.86.6.66-.46,1.21-1.97,2.12-1.51.91-1.63,1.16-1.42,1.5.22.35,3.55-2.47,3.86-1.27.31,1.19-3.4,1.53-3.17,2.36.23.82,2.62-1.56,3.11-.63.49.93-3.37,2.02-3.4,2.03-1.25.32-4.41,1.01-5.52-.61h0Z"/>
  </g>
  <g>
    <path class="g" d="M65.47,25.89c0,.73-.24,1.32-.72,1.79-.48.47-1.08.7-1.81.7h-3.15v-13.76h3.15c.73,0,1.34.23,1.81.7.47.47.71,1.06.71,1.79v8.78ZM64.25,25.77v-8.55c0-.45-.14-.82-.43-1.09s-.65-.42-1.1-.42h-1.7v11.59h1.63c.47,0,.86-.14,1.16-.41.3-.27.44-.65.44-1.12Z"/>
    <path class="g" d="M72.25,27.39c0,.66-.33.99-.98.99h-2.81c-.66,0-.98-.33-.98-.99v-6.57c0-.66.33-.99.98-.99h2.81c.66,0,.98.33.98.99v3.08l-.4.41h-3.25v3.09h2.51v-1.56h1.13v1.55ZM71.12,23.38v-2.58h-2.51v2.58h2.51Z"/>
    <path class="g" d="M79.1,26.54c0,.53-.17.97-.52,1.31-.35.35-.78.52-1.3.52h-1.92v3.24h-1.17v-11.8h1.17v.24l1.39-.18c.59-.08,1.05-.11,1.38-.11.65,0,.98.32.98.96v5.81ZM77.93,26.37v-5.49l-2.58.07v6.41h1.62c.64,0,.96-.33.96-.98Z"/>
    <path class="g" d="M82.19,28.38h-1.15v-13.76h1.15v13.76Z"/>
    <path class="g" d="M89.09,27.39c0,.66-.33.99-.99.99h-2.94c-.66,0-.98-.33-.98-.99v-6.57c0-.66.33-.99.98-.99h2.94c.66,0,.99.33.99.99v6.57ZM87.92,27.35v-6.5h-2.58v6.5h2.58Z"/>
    <path class="g" d="M95.82,19.83l-2.06,8.48-.85,3.31h-1.15l.86-3.31-2.11-8.48h1.2l1.46,6.73,1.48-6.73h1.17Z"/>
    <path class="g" d="M103.85,28.38h-1.66c-.66,0-.98-.33-.98-.99v-6.53h-1.03v-1.03h1.03v-2.66h1.15v2.66h1.49v1.03h-1.49v6.5h1.49v1.03Z"/>
    <path class="g" d="M110.26,27.39c0,.66-.33.99-.99.99h-2.94c-.66,0-.98-.33-.98-.99v-6.57c0-.66.33-.99.98-.99h2.94c.66,0,.99.33.99.99v6.57ZM109.09,27.35v-6.5h-2.58v6.5h2.58Z"/>
    <path class="g" d="M121.59,28.38h-1.22v-6.61h-3.31v6.61h-1.22v-13.76h1.22v6.05h3.31v-6.05h1.22v13.76Z"/>
    <path class="g" d="M128.54,28.38h-1.15v-.24c-.47.06-.93.13-1.4.18-.56.07-1.03.11-1.4.11-.63,0-.95-.32-.95-.95v-7.66h1.15v7.51l2.59-.07v-7.44h1.15v8.55Z"/>
    <path class="g" d="M135.3,30.63c0,.66-.33.99-.99.99h-2.78c-.67,0-1.01-.42-1.01-1.26,0-.1,0-.25.01-.44,0-.2.01-.34.01-.43h1.15v1.13h2.44v-2.25h-1.92c-.52,0-.96-.17-1.3-.52-.35-.35-.52-.79-.52-1.31v-5c0-.5.15-.92.46-1.26.3-.34.71-.5,1.2-.5.13,0,.83.1,2.08.29v-.24h1.16v10.8ZM134.14,27.35v-6.46c-.93-.06-1.46-.09-1.62-.09-.64,0-.97.33-.97.98v4.58c0,.66.32.98.97.98h1.62Z"/>
    <path class="g" d="M142.09,30.63c0,.66-.33.99-.99.99h-2.78c-.67,0-1.01-.42-1.01-1.26,0-.1,0-.25.01-.44,0-.2.01-.34.01-.43h1.15v1.13h2.44v-2.25h-1.92c-.52,0-.96-.17-1.3-.52-.35-.35-.52-.79-.52-1.31v-5c0-.5.15-.92.46-1.26.3-.34.71-.5,1.2-.5.13,0,.83.1,2.08.29v-.24h1.16v10.8ZM140.93,27.35v-6.46c-.93-.06-1.46-.09-1.62-.09-.64,0-.97.33-.97.98v4.58c0,.66.32.98.97.98h1.62Z"/>
    <path class="g" d="M145.25,17.96h-1.19v-1.48h1.19v1.48ZM145.24,28.38h-1.15v-8.55h1.15v8.55Z"/>
    <path class="g" d="M152.14,28.38h-1.17v-7.51l-2.58.07v7.44h-1.17v-8.55h1.17v.24c.46-.06.92-.12,1.38-.18.56-.07,1.03-.11,1.39-.11.65,0,.98.32.98.96v7.65Z"/>
    <path class="g" d="M158.89,30.63c0,.66-.33.99-.99.99h-2.78c-.67,0-1.01-.42-1.01-1.26,0-.1,0-.25.01-.44,0-.2.01-.34.01-.43h1.15v1.13h2.44v-2.25h-1.92c-.52,0-.96-.17-1.3-.52-.35-.35-.52-.79-.52-1.31v-5c0-.5.15-.92.46-1.26.3-.34.71-.5,1.2-.5.13,0,.83.1,2.08.29v-.24h1.16v10.8ZM157.73,27.35v-6.46c-.93-.06-1.46-.09-1.62-.09-.64,0-.97.33-.97.98v4.58c0,.66.32.98.97.98h1.62Z"/>
    <path class="g" d="M168.91,15.71h-3.21v5.22h2.95v1.1h-2.95v6.35h-1.22v-13.76h4.43v1.08Z"/>
    <path class="g" d="M175.29,28.38h-1.15v-.24c-.46.06-.93.13-1.39.18-.57.07-1.03.11-1.38.11-.64,0-.96-.32-.96-.95v-3.12c0-.66.33-.98.99-.98h2.75v-2.58h-2.51v1.46h-1.13v-1.44c0-.66.33-.99.98-.99h2.81c.66,0,.98.33.98.99v7.56ZM174.15,27.32v-3.02h-2.61v3.08l2.61-.05Z"/>
    <path class="g" d="M181.95,27.39c0,.66-.33.99-.98.99h-2.78c-.66,0-.98-.33-.98-.99v-6.57c0-.66.33-.99.98-.99h2.78c.66,0,.98.33.98.99v1.71h-1.15v-1.67h-2.43v6.5h2.43v-1.91h1.15v1.94Z"/>
    <path class="g" d="M188.63,27.39c0,.66-.33.99-.98.99h-2.81c-.66,0-.98-.33-.98-.99v-6.57c0-.66.33-.99.98-.99h2.81c.66,0,.98.33.98.99v3.08l-.4.41h-3.25v3.09h2.51v-1.56h1.13v1.55ZM187.49,23.38v-2.58h-2.51v2.58h2.51Z"/>
  </g>
</svg>