<?xml version="1.0" encoding="UTF-8"?>
<svg id="a" data-name="Layer 1" xmlns="http://www.w3.org/2000/svg" width="212" height="44" viewBox="0 0 212 44">
  <defs>
    <style>
      .e {
        fill: #ff9d0b;
      }

      .e, .f, .g, .h, .i, .j, .k {
        stroke-width: 0px;
      }

      .f {
        fill: #fbf6e3;
      }

      .g {
        fill: #ffd21e;
      }

      .l {
        isolation: isolate;
      }

      .h, .i {
        fill: #3a3b45;
      }

      .i {
        fill-rule: evenodd;
      }

      .j {
        fill: #d36902;
      }

      .k {
        fill: #ff323d;
      }
    </style>
  </defs>
  <g id="b">
    <path id="c" class="f" d="M206,44H6c-3.3,0-6-2.7-6-6V6C0,2.7,2.7,0,6,0h200c3.3,0,6,2.7,6,6v32c0,3.3-2.7,6-6,6Z"/>
  </g>
  <g id="d" class="l">
    <path class="j" d="M81.02,13.98c-.38.19-.72.38-1.03.56,2.62,0,4.28-.03,4.97-.09v1.78c-.44,0-1.28-.03-2.53-.09l1.59.75c-.44.69-1.06,1.91-1.88,3.66,1.5,0,2.66-.03,3.47-.09v1.78c-.81-.06-1.63-.09-2.44-.09h-7.03c-1.12,0-2.06.03-2.81.09v-1.78c.44.06,1.62.09,3.56.09-.44-1.06-1-2.16-1.69-3.28.5-.25,1.03-.53,1.59-.84.62.88,1.28,1.97,1.97,3.28-.63.31-1.09.59-1.41.84h3c.81-1.94,1.31-3.41,1.5-4.41h-2.25c-2.88,0-4.75.03-5.62.09v-1.78c.75.06,2.44.09,5.06.09-.5-1-1-1.78-1.5-2.34.56-.31,1.06-.62,1.5-.94,1,1.25,1.66,2.16,1.97,2.72h.01ZM83.84,28.7c0,1.44.03,2.94.09,4.5h-1.88v-1.88h-5.06v1.88h-1.88c.06-1.31.09-2.69.09-4.12s-.03-3.06-.09-4.69h8.81c-.06,1.44-.09,2.88-.09,4.31h0ZM82.06,29.82v-3.94h-5.06v3.94h5.06ZM94.2,24.24c.53.97.76,1.95.7,2.95-.06,1-.49,1.77-1.27,2.3-.78.53-1.95.89-3.52,1.08-.13-.69-.41-1.44-.84-2.25,1.5,0,2.48-.17,2.95-.52.47-.34.69-.8.66-1.36-.03-.56-.36-1.34-.98-2.34-.63-1-1.34-1.91-2.16-2.72.5-1.12,1.16-3.28,1.97-6.47h-3.38v18.47h-1.88c.06-1.31.09-2.81.09-4.5v-11.44c0-1.37-.06-2.75-.19-4.12h7.88c-1,3.25-1.84,5.84-2.53,7.78,1.12,1.12,1.95,2.17,2.48,3.14h.02Z"/>
    <path class="j" d="M114.21,19.13c1.44,0,2.75-.06,3.94-.19v1.69c1.44-1.12,2.37-2.03,2.81-2.72.44.62,1.06,1.09,1.88,1.41-.69.44-1.44.92-2.25,1.45s-1.56,1.05-2.25,1.55h3c1,0,2-.03,3-.09v1.59c-1-.06-2-.09-3-.09h-5.34c-.44.25-1.22.69-2.34,1.31h7.59c-.06,1.12-.09,2.5-.09,4.12s.03,2.87.09,3.94h-1.78v-.75h-10.22v1.03h-1.88c.06-1.19.09-2.97.09-5.34-1.19.44-2.34.84-3.47,1.22-.19-.56-.5-1.09-.94-1.59.94-.19,2.41-.66,4.41-1.41v-1.22h2.62c1.25-.5,2.22-.94,2.91-1.31h-6.75c-1,0-1.94.03-2.81.09v-1.59c.87.06,1.84.09,2.91.09h6.09v-1.69h-3.75c-1,0-1.94.03-2.81.09v-1.78c.87.13,1.81.19,2.81.19h3.75v-1.59h1.88c-.06.62-.09,1.16-.09,1.59h-.01ZM121.9,14.82c0,.81.03,1.59.09,2.34h-16.31c.06-.94.09-1.78.09-2.53s-.03-1.56-.09-2.44h16.31c-.06.88-.09,1.75-.09,2.62h0ZM110.65,15.85v-2.25h-3.19v2.25h3.19ZM109.24,28.13h10.22v-1.59h-8.72c-.69.31-1.19.56-1.5.75v.84ZM119.46,30.85v-1.41h-10.22v1.41h10.22ZM115.43,15.85v-2.25h-3.09v2.25h3.09ZM115.43,22.32c.38-.25,1.25-.81,2.62-1.69h-3.84v1.69s1.22,0,1.22,0ZM120.21,15.85v-2.25h-3.09v2.25h3.09Z"/>
    <path class="j" d="M138.02,11.54h1.88c-.06.75-.09,1.66-.09,2.72.69,0,1.5-.03,2.44-.09v1.69c-.81-.06-1.63-.09-2.44-.09v2.53h.75c.56-.62,1.12-1.41,1.69-2.34s1-1.91,1.31-2.91c.56.38,1.12.72,1.69,1.03-.19.19-.52.69-.98,1.5-.47.81-1.08,1.72-1.83,2.72,1,0,1.75-.03,2.25-.09v1.69c-.94-.06-2.06-.09-3.38-.09-.81.75-1.59,1.47-2.34,2.16h4.5v1.41c-.44.19-.92.45-1.45.8-.53.34-1.05.74-1.55,1.17v1.12c1.44-.19,2.81-.41,4.12-.66v1.5c-.25,0-1.63.22-4.12.66v2.91c.06,1.31-1.12,2.06-3.56,2.25-.06-.69-.28-1.34-.66-1.97,1.69.12,2.53-.19,2.53-.94v-1.97c-2.31.38-4,.75-5.06,1.12l-.75-1.88c.87-.06,2.81-.31,5.81-.75,0-.69-.06-1.31-.19-1.88.69-.44,1.34-.91,1.97-1.41h-3.56c-1,.75-2.03,1.44-3.09,2.06-.38-.5-.81-.97-1.31-1.41,1-.44,2.03-.97,3.09-1.59v-.56h.84c1.12-.88,1.97-1.59,2.53-2.16-2.88,0-4.88.03-6,.09v-1.69c1.12.06,2.81.09,5.06.09v-2.53c-1.25,0-2.38.03-3.38.09v-1.69c.94.06,2.06.09,3.38.09,0-1.06-.03-1.97-.09-2.72v.02ZM148.06,16.42c3.38,0,5.59-.03,6.66-.09v1.69c-.88-.06-1.59-.09-2.16-.09-.13,1.25-.28,2.44-.47,3.56s-.42,2.22-.7,3.28c-.28,1.06-.7,2.12-1.27,3.19,1.25,1.5,2.87,2.59,4.88,3.28-.69.62-1.12,1.19-1.31,1.69-1.63-.81-3.19-2.03-4.69-3.66-1.56,1.69-3.53,3.03-5.91,4.03-.25-.5-.63-1-1.12-1.5,2.5-.81,4.53-2.12,6.09-3.94-.94-1.88-1.66-3.88-2.16-6l-1.03,1.59c-.31-.44-.72-.88-1.22-1.31.75-1,1.42-2.3,2.02-3.89.59-1.59,1-2.95,1.22-4.08.22-1.12.36-1.97.42-2.53.75.31,1.44.56,2.06.75-.19.19-.63,1.53-1.31,4.03ZM149.09,26.26c.81-1.69,1.41-4.47,1.78-8.34h-3.28c-.25.69-.47,1.28-.66,1.78.62,2.94,1.34,5.12,2.16,6.56Z"/>
    <path class="j" d="M166.95,12.34c1.34-.28,2.48-.64,3.42-1.08.44.81.87,1.5,1.31,2.06-.44-.06-.89-.05-1.36.05s-.98.17-1.55.23v4.59c.87,0,1.81-.03,2.81-.09v1.78c-1-.06-1.94-.09-2.81-.09v8.25c0,1.38.03,3.22.09,5.53h-1.88c.06-2.31.09-4.12.09-5.44v-4.31c-.88,1.75-1.84,3.41-2.91,4.97-.44-.62-.94-1.19-1.5-1.69.87-.88,1.66-1.88,2.34-3,.69-1.12,1.31-2.56,1.88-4.31-1.56,0-2.72.03-3.47.09v-1.78c1.06.06,1.84.09,2.34.09h1.31v-4.22c-.81.19-1.84.38-3.09.56-.19-.56-.41-1.09-.66-1.59,1.06-.12,2.26-.33,3.61-.61h.03ZM172.43,25.32c-.38.25-.88.62-1.5,1.12-.63-1.37-1.25-2.5-1.88-3.38.38-.31.84-.66,1.41-1.03.62.94,1.28,2.03,1.97,3.28h0ZM180.96,21.67c1,0,2.06-.03,3.19-.09v1.69c-1.12-.06-2.19-.09-3.19-.09h-1.78v3h1.03c.94,0,2.03-.03,3.28-.09v1.78c-1.25-.06-2.25-.09-3-.09h-1.31v3.28h2.25c1.12,0,2.31-.03,3.56-.09v1.78c-1-.06-2.19-.09-3.56-.09h-6.28c-1.38,0-2.56.06-3.56.19v-1.88c1,.06,2.19.09,3.56.09h2.25v-3.28h-1.31c-1,0-1.94.06-2.81.19v-1.88c.87.06,1.81.09,2.81.09h1.31v-3h-1.5c-1.12,0-2.19.03-3.19.09v-1.69c1,.06,2.06.09,3.19.09h5.06ZM183.59,16.13c0,1.06.03,2.12.09,3.19h-10.5c.06-1.19.09-2.31.09-3.38s-.03-2.25-.09-3.56h10.5c-.06,1.38-.09,2.62-.09,3.75ZM181.62,17.63v-3.66h-6.66v3.66h6.66Z"/>
  </g>
  <g>
    <path class="g" d="M39,30.82c5.55,0,10.05-4.5,10.05-10.05s-4.5-10.05-10.05-10.05-10.05,4.5-10.05,10.05,4.5,10.05,10.05,10.05Z"/>
    <path class="e" d="M49.05,20.77c0-5.55-4.5-10.05-10.05-10.05s-10.05,4.5-10.05,10.05,4.5,10.05,10.05,10.05,10.05-4.5,10.05-10.05ZM27.8,20.77c0-6.19,5.02-11.21,11.21-11.21s11.21,5.02,11.21,11.21-5.02,11.21-11.21,11.21-11.21-5.02-11.21-11.21Z"/>
    <path class="h" d="M42.27,18.04c.37.13.51.88.89.69.71-.37.97-1.25.6-1.96-.37-.71-1.25-.97-1.96-.6-.71.37-.97,1.25-.6,1.96h0c.18.33.74-.21,1.07-.09h0ZM35.46,18.04c-.37.13-.52.88-.89.69-.71-.37-.97-1.25-.6-1.96.37-.71,1.25-.97,1.96-.6.71.37.97,1.25.6,1.96h0c-.18.33-.74-.21-1.07-.09h0Z"/>
    <path class="k" d="M38.93,24.97c2.84,0,3.76-2.53,3.76-3.83,0-.68-.45-.46-1.18-.1-.67.33-1.58.79-2.57.79-2.08,0-3.76-1.99-3.76-.69s.91,3.83,3.76,3.83h0Z"/>
    <path class="i" d="M36.75,24.31c.31-.63.86-1.1,1.53-1.3.12-.03.23.16.36.37.12.2.24.4.36.4.13,0,.26-.2.38-.39.13-.2.26-.4.38-.36.62.2,1.14.63,1.45,1.21,1.08-.85,1.47-2.24,1.47-3.09,0-.68-.45-.46-1.18-.1l-.04.02c-.67.33-1.56.77-2.54.77s-1.87-.44-2.54-.77c-.75-.37-1.22-.61-1.22.08,0,.88.42,2.33,1.58,3.17h0Z"/>
    <path class="e" d="M45.8,19.39c.52,0,.94-.42.94-.94s-.42-.94-.94-.94-.94.42-.94.94.42.94.94.94ZM32.35,19.39c.52,0,.94-.42.94-.94s-.42-.94-.94-.94-.94.42-.94.94.42.94.94.94ZM30.42,22.58c-.47,0-.88.19-1.18.54-.25.31-.38.69-.38,1.09-.18-.05-.37-.08-.56-.09-.45,0-.85.17-1.14.48-.53.55-.62,1.37-.23,2.02-.26.21-.44.5-.52.82-.07.26-.14.81.23,1.37-.28.43-.32.98-.11,1.45.29.67,1.03,1.2,2.46,1.76.89.35,1.7.58,1.71.58,1.03.29,2.09.44,3.16.46,1.69,0,2.91-.52,3.6-1.54,1.12-1.65.96-3.15-.49-4.6-.8-.8-1.34-1.99-1.45-2.25-.23-.77-.82-1.63-1.81-1.63-.53,0-1.03.27-1.33.71-.29-.36-.57-.65-.83-.82-.34-.23-.74-.36-1.15-.37l.02.02ZM30.42,23.73c.15,0,.33.06.53.19.62.39,1.81,2.44,2.24,3.23.14.27.4.38.62.38.45,0,.8-.44.04-1.01-1.13-.85-.74-2.23-.2-2.32h.07c.49,0,.71.85.71.85,0,0,.64,1.6,1.73,2.69s1.15,1.97.35,3.13c-.54.8-1.58,1.04-2.65,1.04s-2.24-.26-2.87-.42c-.03,0-3.89-1.1-3.4-2.02.08-.16.22-.22.39-.22.69,0,1.94,1.02,2.48,1.02.12,0,.2-.05.24-.17.23-.82-3.49-1.17-3.18-2.36.06-.21.21-.29.42-.29.91,0,2.95,1.6,3.38,1.6.03,0,.06,0,.07-.03.21-.35.1-.59-1.42-1.5-1.51-.91-2.57-1.46-1.97-2.12.07-.08.17-.11.29-.11.92,0,3.08,1.97,3.08,1.97,0,0,.58.61.94.61.08,0,.15-.03.2-.11.25-.42-2.33-2.38-2.48-3.18-.1-.55.07-.82.38-.82h0v-.03Z"/>
    <path class="g" d="M36.51,30.87c.8-1.17.74-2.04-.35-3.13s-1.73-2.69-1.73-2.69c0,0-.24-.93-.78-.84s-.94,1.47.2,2.32c1.13.85-.23,1.42-.66.63-.43-.8-1.63-2.84-2.24-3.23-.62-.39-1.05-.17-.91.64s2.73,2.76,2.48,3.18c-.25.43-1.14-.49-1.14-.49,0,0-2.77-2.52-3.37-1.86-.6.66.46,1.21,1.97,2.12s1.63,1.16,1.42,1.5c-.22.35-3.55-2.47-3.86-1.27-.31,1.19,3.4,1.53,3.18,2.36-.23.82-2.62-1.56-3.11-.63-.49.93,3.37,2.02,3.4,2.03,1.24.32,4.41,1.01,5.52-.61l-.02-.03Z"/>
    <path class="e" d="M47.73,22.58c.47,0,.89.19,1.18.54.25.31.38.69.38,1.09.18-.06.37-.08.56-.09.45,0,.85.17,1.14.48.53.55.62,1.37.23,2.02.25.21.44.5.51.82.07.26.14.81-.23,1.37.28.43.32.98.11,1.45-.29.67-1.03,1.2-2.46,1.76-.89.35-1.71.58-1.71.58-1.03.29-2.09.44-3.16.46-1.69,0-2.91-.52-3.6-1.54-1.12-1.65-.96-3.15.49-4.6.8-.8,1.34-1.99,1.45-2.25.23-.77.82-1.63,1.8-1.63.53,0,1.03.27,1.33.71.29-.36.57-.65.83-.82.34-.23.74-.36,1.15-.37v.02ZM47.73,23.73c-.15,0-.33.06-.53.19-.62.39-1.81,2.44-2.24,3.23-.12.23-.36.38-.62.38-.45,0-.8-.44-.04-1.01,1.13-.85.73-2.23.19-2.32h-.07c-.49,0-.71.85-.71.85,0,0-.64,1.6-1.73,2.69s-1.15,1.97-.35,3.13c.54.8,1.58,1.04,2.65,1.04s2.24-.26,2.87-.42c.03,0,3.89-1.1,3.4-2.02-.08-.16-.22-.22-.39-.22-.69,0-1.94,1.02-2.48,1.02-.12,0-.21-.05-.24-.17-.23-.82,3.48-1.17,3.17-2.36-.05-.21-.2-.29-.42-.29-.91,0-2.95,1.6-3.38,1.6-.03,0-.05,0-.07-.03-.21-.35-.1-.59,1.41-1.5s2.57-1.46,1.97-2.12c-.07-.08-.16-.11-.28-.11-.92,0-3.09,1.97-3.09,1.97,0,0-.58.61-.94.61-.08,0-.16-.04-.2-.11-.25-.42,2.33-2.38,2.47-3.18.1-.55-.07-.82-.38-.82h0l.03-.03Z"/>
    <path class="g" d="M41.64,30.87c-.8-1.17-.74-2.04.35-3.13s1.73-2.69,1.73-2.69c0,0,.24-.93.78-.84.54.09.93,1.47-.2,2.32s.23,1.42.66.63c.44-.8,1.63-2.84,2.24-3.23.62-.39,1.05-.17.91.64s-2.72,2.76-2.47,3.18c.25.43,1.13-.49,1.13-.49,0,0,2.77-2.52,3.37-1.86s-.46,1.21-1.97,2.12c-1.51.91-1.63,1.16-1.42,1.5.22.35,3.55-2.47,3.86-1.27.31,1.19-3.4,1.53-3.17,2.36.23.82,2.62-1.56,3.11-.63s-3.37,2.02-3.4,2.03c-1.25.32-4.41,1.01-5.52-.61h0v-.03Z"/>
  </g>
  <g>
    <path class="g" d="M39,30.82c5.55,0,10.05-4.5,10.05-10.05s-4.5-10.05-10.05-10.05-10.05,4.5-10.05,10.05,4.5,10.05,10.05,10.05Z"/>
    <path class="e" d="M49.05,20.77c0-5.55-4.5-10.05-10.05-10.05s-10.05,4.5-10.05,10.05,4.5,10.05,10.05,10.05,10.05-4.5,10.05-10.05ZM27.8,20.77c0-6.19,5.02-11.21,11.21-11.21s11.21,5.02,11.21,11.21-5.02,11.21-11.21,11.21-11.21-5.02-11.21-11.21Z"/>
    <path class="h" d="M42.27,18.04c.37.13.51.88.89.69.71-.37.97-1.25.6-1.96-.37-.71-1.25-.97-1.96-.6-.71.37-.97,1.25-.6,1.96h0c.18.33.74-.21,1.07-.09h0ZM35.46,18.04c-.37.13-.52.88-.89.69-.71-.37-.97-1.25-.6-1.96.37-.71,1.25-.97,1.96-.6.71.37.97,1.25.6,1.96h0c-.18.33-.74-.21-1.07-.09h0Z"/>
    <path class="k" d="M38.93,24.97c2.84,0,3.76-2.53,3.76-3.83,0-.68-.45-.46-1.18-.1-.67.33-1.58.79-2.57.79-2.08,0-3.76-1.99-3.76-.69s.91,3.83,3.76,3.83h0Z"/>
    <path class="i" d="M36.75,24.31c.31-.63.86-1.1,1.53-1.3.12-.03.23.16.36.37.12.2.24.4.36.4.13,0,.26-.2.38-.39.13-.2.26-.4.38-.36.62.2,1.14.63,1.45,1.21,1.08-.85,1.47-2.24,1.47-3.09,0-.68-.45-.46-1.18-.1l-.04.02c-.67.33-1.56.77-2.54.77s-1.87-.44-2.54-.77c-.75-.37-1.22-.61-1.22.08,0,.88.42,2.33,1.58,3.17h0Z"/>
    <path class="e" d="M45.8,19.39c.52,0,.94-.42.94-.94s-.42-.94-.94-.94-.94.42-.94.94.42.94.94.94ZM32.35,19.39c.52,0,.94-.42.94-.94s-.42-.94-.94-.94-.94.42-.94.94.42.94.94.94ZM30.42,22.58c-.47,0-.88.19-1.18.54-.25.31-.38.69-.38,1.09-.18-.05-.37-.08-.56-.09-.45,0-.85.17-1.14.48-.53.55-.62,1.37-.23,2.02-.26.21-.44.5-.52.82-.07.26-.14.81.23,1.37-.28.43-.32.98-.11,1.45.29.67,1.03,1.2,2.46,1.76.89.35,1.7.58,1.71.58,1.03.29,2.09.44,3.16.46,1.69,0,2.91-.52,3.6-1.54,1.12-1.65.96-3.15-.49-4.6-.8-.8-1.34-1.99-1.45-2.25-.23-.77-.82-1.63-1.81-1.63-.53,0-1.03.27-1.33.71-.29-.36-.57-.65-.83-.82-.34-.23-.74-.36-1.15-.37l.02.02ZM30.42,23.73c.15,0,.33.06.53.19.62.39,1.81,2.44,2.24,3.23.14.27.4.38.62.38.45,0,.8-.44.04-1.01-1.13-.85-.74-2.23-.2-2.32h.07c.49,0,.71.85.71.85,0,0,.64,1.6,1.73,2.69s1.15,1.97.35,3.13c-.54.8-1.58,1.04-2.65,1.04s-2.24-.26-2.87-.42c-.03,0-3.89-1.1-3.4-2.02.08-.16.22-.22.39-.22.69,0,1.94,1.02,2.48,1.02.12,0,.2-.05.24-.17.23-.82-3.49-1.17-3.18-2.36.06-.21.21-.29.42-.29.91,0,2.95,1.6,3.38,1.6.03,0,.06,0,.07-.03.21-.35.1-.59-1.42-1.5-1.51-.91-2.57-1.46-1.97-2.12.07-.08.17-.11.29-.11.92,0,3.08,1.97,3.08,1.97,0,0,.58.61.94.61.08,0,.15-.03.2-.11.25-.42-2.33-2.38-2.48-3.18-.1-.55.07-.82.38-.82h0v-.03Z"/>
    <path class="g" d="M36.51,30.87c.8-1.17.74-2.04-.35-3.13s-1.73-2.69-1.73-2.69c0,0-.24-.93-.78-.84s-.94,1.47.2,2.32c1.13.85-.23,1.42-.66.63-.43-.8-1.63-2.84-2.24-3.23-.62-.39-1.05-.17-.91.64s2.73,2.76,2.48,3.18c-.25.43-1.14-.49-1.14-.49,0,0-2.77-2.52-3.37-1.86-.6.66.46,1.21,1.97,2.12s1.63,1.16,1.42,1.5c-.22.35-3.55-2.47-3.86-1.27-.31,1.19,3.4,1.53,3.18,2.36-.23.82-2.62-1.56-3.11-.63-.49.93,3.37,2.02,3.4,2.03,1.24.32,4.41,1.01,5.52-.61l-.02-.03Z"/>
    <path class="e" d="M47.73,22.58c.47,0,.89.19,1.18.54.25.31.38.69.38,1.09.18-.06.37-.08.56-.09.45,0,.85.17,1.14.48.53.55.62,1.37.23,2.02.25.21.44.5.51.82.07.26.14.81-.23,1.37.28.43.32.98.11,1.45-.29.67-1.03,1.2-2.46,1.76-.89.35-1.71.58-1.71.58-1.03.29-2.09.44-3.16.46-1.69,0-2.91-.52-3.6-1.54-1.12-1.65-.96-3.15.49-4.6.8-.8,1.34-1.99,1.45-2.25.23-.77.82-1.63,1.8-1.63.53,0,1.03.27,1.33.71.29-.36.57-.65.83-.82.34-.23.74-.36,1.15-.37v.02ZM47.73,23.73c-.15,0-.33.06-.53.19-.62.39-1.81,2.44-2.24,3.23-.12.23-.36.38-.62.38-.45,0-.8-.44-.04-1.01,1.13-.85.73-2.23.19-2.32h-.07c-.49,0-.71.85-.71.85,0,0-.64,1.6-1.73,2.69s-1.15,1.97-.35,3.13c.54.8,1.58,1.04,2.65,1.04s2.24-.26,2.87-.42c.03,0,3.89-1.1,3.4-2.02-.08-.16-.22-.22-.39-.22-.69,0-1.94,1.02-2.48,1.02-.12,0-.21-.05-.24-.17-.23-.82,3.48-1.17,3.17-2.36-.05-.21-.2-.29-.42-.29-.91,0-2.95,1.6-3.38,1.6-.03,0-.05,0-.07-.03-.21-.35-.1-.59,1.41-1.5s2.57-1.46,1.97-2.12c-.07-.08-.16-.11-.28-.11-.92,0-3.09,1.97-3.09,1.97,0,0-.58.61-.94.61-.08,0-.16-.04-.2-.11-.25-.42,2.33-2.38,2.47-3.18.1-.55-.07-.82-.38-.82h0l.03-.03Z"/>
    <path class="g" d="M41.64,30.87c-.8-1.17-.74-2.04.35-3.13s1.73-2.69,1.73-2.69c0,0,.24-.93.78-.84.54.09.93,1.47-.2,2.32s.23,1.42.66.63c.44-.8,1.63-2.84,2.24-3.23.62-.39,1.05-.17.91.64s-2.72,2.76-2.47,3.18c.25.43,1.13-.49,1.13-.49,0,0,2.77-2.52,3.37-1.86s-.46,1.21-1.97,2.12c-1.51.91-1.63,1.16-1.42,1.5.22.35,3.55-2.47,3.86-1.27.31,1.19-3.4,1.53-3.17,2.36.23.82,2.62-1.56,3.11-.63s-3.37,2.02-3.4,2.03c-1.25.32-4.41,1.01-5.52-.61h0v-.03Z"/>
  </g>
</svg>
