<?xml version="1.0" encoding="UTF-8"?>
<svg id="a" data-name="图层 1" xmlns="http://www.w3.org/2000/svg" viewBox="0 0 212 44">
  <defs>
    <style>
      .i {
        fill: #4f65f1;
      }

      .i, .j {
        stroke-width: 0px;
      }

      .k {
        isolation: isolate;
      }

      .j {
        fill: #fff;
      }
    </style>
  </defs>
  <g id="b" data-name="svg 1">
    <path id="c" data-name="svg 2" class="i" d="M206,44H6c-3.3,0-6-2.7-6-6V6C0,2.7,2.7,0,6,0h200c3.3,0,6,2.7,6,6v32c0,3.3-2.7,6-6,6Z"/>
  </g>
  <g id="d" data-name="svg 3">
    <g id="e" data-name="svg 4">
      <path id="f" data-name="svg 5" class="j" d="M38.1,18.2c-.4-.2-1-.4-1.5-.4h-1.7c-1-3-3.3-5.3-6.4-6.2-3.4-1-6.9-.1-9.7,2.4-.3.2-.5.5-.7.8-2.8,4-2.7,9,.4,12.5.3.4.9.4,1.2.1.4-.3.4-.9.1-1.2-2.5-2.9-2.7-7-.3-10.3.1-.2.3-.4.5-.5,2.4-2.1,5.3-2.9,8.1-2,2.7.8,4.7,2.9,5.4,5.6.1.4.5.7.9.7h2.3c.3,0,.5.1.7.2,1.9,1,3,2.6,3,4.4,0,1.7-.9,3.3-2.4,4.1-.4.2-.6.8-.4,1.2.2.3.5.5.8.5.1,0,.3,0,.4-.1,2.1-1.1,3.4-3.3,3.3-5.7-.1-2.7-1.6-4.8-4-6.1Z"/>
      <path id="g" data-name="svg 6" class="j" d="M29.6,20.9c-.3-.3-.9-.3-1.2,0l-4.4,4.4c-.3.3-.3.9,0,1.2.2.2.4.3.6.3s.5-.1.6-.3l2.8-2.8v8.2c0,.5.4.9.9.9s.9-.4.9-.9v-8.4l3,3c.3.3.9.3,1.2,0s.3-.9,0-1.2c0,0-4.4-4.4-4.4-4.4Z"/>
    </g>
  </g>
  <g id="h" data-name="svg 23" class="k">
    <path class="j" d="M86.36,13.98c-.38.19-.72.38-1.03.56,2.62,0,4.28-.03,4.97-.09v1.78c-.44,0-1.28-.03-2.53-.09l1.59.75c-.44.69-1.06,1.91-1.88,3.66,1.5,0,2.66-.03,3.47-.09v1.78c-.81-.06-1.63-.09-2.44-.09h-7.03c-1.12,0-2.06.03-2.81.09v-1.78c.44.06,1.62.09,3.56.09-.44-1.06-1-2.16-1.69-3.28.5-.25,1.03-.53,1.59-.84.62.88,1.28,1.97,1.97,3.28-.63.31-1.09.59-1.41.84h3c.81-1.94,1.31-3.41,1.5-4.41h-2.25c-2.88,0-4.75.03-5.62.09v-1.78c.75.06,2.44.09,5.06.09-.5-1-1-1.78-1.5-2.34.56-.31,1.06-.62,1.5-.94,1,1.25,1.66,2.16,1.97,2.72ZM89.17,28.7c0,1.44.03,2.94.09,4.5h-1.88v-1.88h-5.06v1.88h-1.88c.06-1.31.09-2.69.09-4.12s-.03-3.06-.09-4.69h8.81c-.06,1.44-.09,2.88-.09,4.31ZM87.39,29.82v-3.94h-5.06v3.94h5.06ZM99.53,24.24c.53.97.76,1.95.7,2.95-.06,1-.48,1.77-1.27,2.3-.78.53-1.95.89-3.52,1.08-.13-.69-.41-1.44-.84-2.25,1.5,0,2.48-.17,2.95-.52.47-.34.69-.8.66-1.36-.03-.56-.36-1.34-.98-2.34-.63-1-1.34-1.91-2.16-2.72.5-1.12,1.16-3.28,1.97-6.47h-3.38v18.47h-1.88c.06-1.31.09-2.81.09-4.5v-11.44c0-1.37-.06-2.75-.19-4.12h7.88c-1,3.25-1.84,5.84-2.53,7.78,1.12,1.12,1.95,2.17,2.48,3.14Z"/>
    <path class="j" d="M119.54,19.13c1.44,0,2.75-.06,3.94-.19v1.69c1.44-1.12,2.38-2.03,2.81-2.72.44.62,1.06,1.09,1.88,1.41-.69.44-1.44.92-2.25,1.45-.81.53-1.56,1.05-2.25,1.55h3c1,0,2-.03,3-.09v1.59c-1-.06-2-.09-3-.09h-5.34c-.44.25-1.22.69-2.34,1.31h7.59c-.06,1.12-.09,2.5-.09,4.12s.03,2.87.09,3.94h-1.78v-.75h-10.22v1.03h-1.88c.06-1.19.09-2.97.09-5.34-1.19.44-2.34.84-3.47,1.22-.19-.56-.5-1.09-.94-1.59.94-.19,2.41-.66,4.41-1.41v-1.22h2.62c1.25-.5,2.22-.94,2.91-1.31h-6.75c-1,0-1.94.03-2.81.09v-1.59c.88.06,1.84.09,2.91.09h6.09v-1.69h-3.75c-1,0-1.94.03-2.81.09v-1.78c.88.13,1.81.19,2.81.19h3.75v-1.59h1.88c-.06.62-.09,1.16-.09,1.59ZM127.23,14.82c0,.81.03,1.59.09,2.34h-16.31c.06-.94.09-1.78.09-2.53s-.03-1.56-.09-2.44h16.31c-.06.88-.09,1.75-.09,2.62ZM115.98,15.85v-2.25h-3.19v2.25h3.19ZM114.58,28.13h10.22v-1.59h-8.72c-.69.31-1.19.56-1.5.75v.84ZM124.79,30.85v-1.41h-10.22v1.41h10.22ZM120.76,15.85v-2.25h-3.09v2.25h3.09ZM120.76,22.32c.38-.25,1.25-.81,2.62-1.69h-3.84v1.69h1.22ZM125.54,15.85v-2.25h-3.09v2.25h3.09Z"/>
    <path class="j" d="M143.36,11.54h1.88c-.06.75-.09,1.66-.09,2.72.69,0,1.5-.03,2.44-.09v1.69c-.81-.06-1.63-.09-2.44-.09v2.53h.75c.56-.62,1.12-1.41,1.69-2.34s1-1.91,1.31-2.91c.56.38,1.12.72,1.69,1.03-.19.19-.52.69-.98,1.5-.47.81-1.08,1.72-1.83,2.72,1,0,1.75-.03,2.25-.09v1.69c-.94-.06-2.06-.09-3.38-.09-.81.75-1.59,1.47-2.34,2.16h4.5v1.41c-.44.19-.92.45-1.45.8-.53.34-1.05.74-1.55,1.17v1.12c1.44-.19,2.81-.41,4.12-.66v1.5c-.25,0-1.63.22-4.12.66v2.91c.06,1.31-1.12,2.06-3.56,2.25-.06-.69-.28-1.34-.66-1.97,1.69.12,2.53-.19,2.53-.94v-1.97c-2.31.38-4,.75-5.06,1.12l-.75-1.88c.88-.06,2.81-.31,5.81-.75,0-.69-.06-1.31-.19-1.88.69-.44,1.34-.91,1.97-1.41h-3.56c-1,.75-2.03,1.44-3.09,2.06-.38-.5-.81-.97-1.31-1.41,1-.44,2.03-.97,3.09-1.59v-.56h.84c1.12-.88,1.97-1.59,2.53-2.16-2.88,0-4.88.03-6,.09v-1.69c1.12.06,2.81.09,5.06.09v-2.53c-1.25,0-2.38.03-3.38.09v-1.69c.94.06,2.06.09,3.38.09,0-1.06-.03-1.97-.09-2.72ZM153.39,16.42c3.38,0,5.59-.03,6.66-.09v1.69c-.88-.06-1.59-.09-2.16-.09-.13,1.25-.28,2.44-.47,3.56s-.42,2.22-.7,3.28c-.28,1.06-.7,2.12-1.27,3.19,1.25,1.5,2.87,2.59,4.88,3.28-.69.62-1.12,1.19-1.31,1.69-1.63-.81-3.19-2.03-4.69-3.66-1.56,1.69-3.53,3.03-5.91,4.03-.25-.5-.62-1-1.12-1.5,2.5-.81,4.53-2.12,6.09-3.94-.94-1.88-1.66-3.88-2.16-6l-1.03,1.59c-.31-.44-.72-.88-1.22-1.31.75-1,1.42-2.3,2.02-3.89.59-1.59,1-2.95,1.22-4.08.22-1.12.36-1.97.42-2.53.75.31,1.44.56,2.06.75-.19.19-.62,1.53-1.31,4.03ZM154.42,26.26c.81-1.69,1.41-4.47,1.78-8.34h-3.28c-.25.69-.47,1.28-.66,1.78.62,2.94,1.34,5.12,2.16,6.56Z"/>
    <path class="j" d="M172.28,12.34c1.34-.28,2.48-.64,3.42-1.08.44.81.88,1.5,1.31,2.06-.44-.06-.89-.05-1.36.05s-.98.17-1.55.23v4.59c.88,0,1.81-.03,2.81-.09v1.78c-1-.06-1.94-.09-2.81-.09v8.25c0,1.38.03,3.22.09,5.53h-1.88c.06-2.31.09-4.12.09-5.44v-4.31c-.88,1.75-1.84,3.41-2.91,4.97-.44-.62-.94-1.19-1.5-1.69.88-.88,1.66-1.88,2.34-3,.69-1.12,1.31-2.56,1.88-4.31-1.56,0-2.72.03-3.47.09v-1.78c1.06.06,1.84.09,2.34.09h1.31v-4.22c-.81.19-1.84.38-3.09.56-.19-.56-.41-1.09-.66-1.59,1.06-.12,2.26-.33,3.61-.61ZM177.76,25.32c-.38.25-.88.62-1.5,1.12-.62-1.37-1.25-2.5-1.88-3.38.38-.31.84-.66,1.41-1.03.62.94,1.28,2.03,1.97,3.28ZM186.29,21.67c1,0,2.06-.03,3.19-.09v1.69c-1.12-.06-2.19-.09-3.19-.09h-1.78v3h1.03c.94,0,2.03-.03,3.28-.09v1.78c-1.25-.06-2.25-.09-3-.09h-1.31v3.28h2.25c1.12,0,2.31-.03,3.56-.09v1.78c-1-.06-2.19-.09-3.56-.09h-6.28c-1.38,0-2.56.06-3.56.19v-1.88c1,.06,2.19.09,3.56.09h2.25v-3.28h-1.31c-1,0-1.94.06-2.81.19v-1.88c.88.06,1.81.09,2.81.09h1.31v-3h-1.5c-1.12,0-2.19.03-3.19.09v-1.69c1,.06,2.06.09,3.19.09h5.06ZM188.92,16.13c0,1.06.03,2.12.09,3.19h-10.5c.06-1.19.09-2.31.09-3.38s-.03-2.25-.09-3.56h10.5c-.06,1.38-.09,2.62-.09,3.75ZM186.95,17.63v-3.66h-6.66v3.66h6.66Z"/>
  </g>
</svg>
