<?xml version="1.0"?>
<svg width="212" height="44" xmlns="http://www.w3.org/2000/svg" xmlns:svg="http://www.w3.org/2000/svg" enable-background="new 0 0 212 44" version="1.1" xml:space="preserve">
 <style type="text/css">.st0{fill:#4F65F1;}
	.st1{fill:#FFFFFF;}</style>
 <g class="layer">
  <title>Layer 1</title>
  <g id="svg_1" transform="matrix(1 0 0 1 0 0)">
   <path class="st0" d="m206,44l-200,0c-3.3,0 -6,-2.7 -6,-6l0,-32c0,-3.3 2.7,-6 6,-6l200,0c3.3,0 6,2.7 6,6l0,32c0,3.3 -2.7,6 -6,6z" id="svg_2"/>
  </g>
  <g id="svg_3">
   <g id="svg_4">
    <path class="st1" d="m38.1,18.2c-0.4,-0.2 -1,-0.4 -1.5,-0.4l-1.7,0c-1,-3 -3.3,-5.3 -6.4,-6.2c-3.4,-1 -6.9,-0.1 -9.7,2.4c-0.3,0.2 -0.5,0.5 -0.7,0.8c-2.8,4 -2.7,9 0.4,12.5c0.3,0.4 0.9,0.4 1.2,0.1c0.4,-0.3 0.4,-0.9 0.1,-1.2c-2.5,-2.9 -2.7,-7 -0.3,-10.3c0.1,-0.2 0.3,-0.4 0.5,-0.5c2.4,-2.1 5.3,-2.9 8.1,-2c2.7,0.8 4.7,2.9 5.4,5.6c0.1,0.4 0.5,0.7 0.9,0.7l2.3,0c0.3,0 0.5,0.1 0.7,0.2c1.9,1 3,2.6 3,4.4c0,1.7 -0.9,3.3 -2.4,4.1c-0.4,0.2 -0.6,0.8 -0.4,1.2c0.2,0.3 0.5,0.5 0.8,0.5c0.1,0 0.3,0 0.4,-0.1c2.1,-1.1 3.4,-3.3 3.3,-5.7c-0.1,-2.7 -1.6,-4.8 -4,-6.1z" id="svg_5"/>
    <path class="st1" d="m29.6,20.9c-0.3,-0.3 -0.9,-0.3 -1.2,0l-4.4,4.4c-0.3,0.3 -0.3,0.9 0,1.2c0.2,0.2 0.4,0.3 0.6,0.3s0.5,-0.1 0.6,-0.3l2.8,-2.8l0,8.2c0,0.5 0.4,0.9 0.9,0.9s0.9,-0.4 0.9,-0.9l0,-8.4l3,3c0.3,0.3 0.9,0.3 1.2,0c0.3,-0.3 0.3,-0.9 0,-1.2l-4.4,-4.4z" id="svg_6"/>
   </g>
  </g>
  <text fill="#ffffff" font-family="Sans-serif" font-size="24" id="svg_23" letter-spacing="6" stroke="#000000" stroke-width="0" text-anchor="middle" x="124.17" xml:space="preserve" y="30.04">部署教程</text>
 </g>
</svg>